<svg aria-hidden="true" id="visual" viewBox="0 0 960 540" width="960" height="540" xmlns="http://www.w3.org/2000/svg" xmlns:xlink="http://www.w3.org/1999/xlink" version="1.1"><path d="M0 23L17.8 29.2C35.7 35.3 71.3 47.7 106.8 53.8C142.3 60 177.7 60 213.2 60C248.7 60 284.3 60 320 58.3C355.7 56.7 391.3 53.3 426.8 48C462.3 42.7 497.7 35.3 533.2 30.8C568.7 26.3 604.3 24.7 640 24.7C675.7 24.7 711.3 26.3 746.8 30.8C782.3 35.3 817.7 42.7 853.2 41.8C888.7 41 924.3 32 942.2 27.5L960 23L960 0L942.2 0C924.3 0 888.7 0 853.2 0C817.7 0 782.3 0 746.8 0C711.3 0 675.7 0 640 0C604.3 0 568.7 0 533.2 0C497.7 0 462.3 0 426.8 0C391.3 0 355.7 0 320 0C284.3 0 248.7 0 213.2 0C177.7 0 142.3 0 106.8 0C71.3 0 35.7 0 17.8 0L0 0Z" fill="#be123c"></path><path d="M0 50L17.8 58C35.7 66 71.3 82 106.8 86.5C142.3 91 177.7 84 213.2 81.3C248.7 78.7 284.3 80.3 320 83C355.7 85.7 391.3 89.3 426.8 86.7C462.3 84 497.7 75 533.2 67.8C568.7 60.7 604.3 55.3 640 52.7C675.7 50 711.3 50 746.8 55.3C782.3 60.7 817.7 71.3 853.2 70.3C888.7 69.3 924.3 56.7 942.2 50.3L960 44L960 21L942.2 25.5C924.3 30 888.7 39 853.2 39.8C817.7 40.7 782.3 33.3 746.8 28.8C711.3 24.3 675.7 22.7 640 22.7C604.3 22.7 568.7 24.3 533.2 28.8C497.7 33.3 462.3 40.7 426.8 46C391.3 51.3 355.7 54.7 320 56.3C284.3 58 248.7 58 213.2 58C177.7 58 142.3 58 106.8 51.8C71.3 45.7 35.7 33.3 17.8 27.2L0 21Z" fill="#871756"></path><path d="M0 120L17.8 139.8C35.7 159.7 71.3 199.3 106.8 218.2C142.3 237 177.7 235 213.2 218.7C248.7 202.3 284.3 171.7 320 160C355.7 148.3 391.3 155.7 426.8 163.8C462.3 172 497.7 181 533.2 187.3C568.7 193.7 604.3 197.3 640 196.5C675.7 195.7 711.3 190.3 746.8 198.3C782.3 206.3 817.7 227.7 853.2 236.7C888.7 245.7 924.3 242.3 942.2 240.7L960 239L960 42L942.2 48.3C924.3 54.7 888.7 67.3 853.2 68.3C817.7 69.3 782.3 58.7 746.8 53.3C711.3 48 675.7 48 640 50.7C604.3 53.3 568.7 58.7 533.2 65.8C497.7 73 462.3 82 426.8 84.7C391.3 87.3 355.7 83.7 320 81C284.3 78.3 248.7 76.7 213.2 79.3C177.7 82 142.3 89 106.8 84.5C71.3 80 35.7 64 17.8 56L0 48Z" fill="#462251"></path><path d="M0 141L17.8 161.8C35.7 182.7 71.3 224.3 106.8 246C142.3 267.7 177.7 269.3 213.2 254.8C248.7 240.3 284.3 209.7 320 198C355.7 186.3 391.3 193.7 426.8 200.8C462.3 208 497.7 215 533.2 219.5C568.7 224 604.3 226 640 223.3C675.7 220.7 711.3 213.3 746.8 221.3C782.3 229.3 817.7 252.7 853.2 262.7C888.7 272.7 924.3 269.3 942.2 267.7L960 266L960 237L942.2 238.7C924.3 240.3 888.7 243.7 853.2 234.7C817.7 225.7 782.3 204.3 746.8 196.3C711.3 188.3 675.7 193.7 640 194.5C604.3 195.3 568.7 191.7 533.2 185.3C497.7 179 462.3 170 426.8 161.8C391.3 153.7 355.7 146.3 320 158C284.3 169.7 248.7 200.3 213.2 216.7C177.7 233 142.3 235 106.8 216.2C71.3 197.3 35.7 157.7 17.8 137.8L0 118Z" fill="#151a32"></path><path d="M0 195L17.8 213C35.7 231 71.3 267 106.8 292.3C142.3 317.7 177.7 332.3 213.2 316.2C248.7 300 284.3 253 320 232.2C355.7 211.3 391.3 216.7 426.8 223.8C462.3 231 497.7 240 533.2 249C568.7 258 604.3 267 640 272.5C675.7 278 711.3 280 746.8 292.7C782.3 305.3 817.7 328.7 853.2 337.7C888.7 346.7 924.3 341.3 942.2 338.7L960 336L960 264L942.2 265.7C924.3 267.3 888.7 270.7 853.2 260.7C817.7 250.7 782.3 227.3 746.8 219.3C711.3 211.3 675.7 218.7 640 221.3C604.3 224 568.7 222 533.2 217.5C497.7 213 462.3 206 426.8 198.8C391.3 191.7 355.7 184.3 320 196C284.3 207.7 248.7 238.3 213.2 252.8C177.7 267.3 142.3 265.7 106.8 244C71.3 222.3 35.7 180.7 17.8 159.8L0 139Z" fill="#0f172a"></path><path d="M0 217L17.8 238.7C35.7 260.3 71.3 303.7 106.8 329.8C142.3 356 177.7 365 213.2 347C248.7 329 284.3 284 320 264.2C355.7 244.3 391.3 249.7 426.8 259.5C462.3 269.3 497.7 283.7 533.2 290C568.7 296.3 604.3 294.7 640 297.3C675.7 300 711.3 307 746.8 320.5C782.3 334 817.7 354 853.2 361.2C888.7 368.3 924.3 362.7 942.2 359.8L960 357L960 334L942.2 336.7C924.3 339.3 888.7 344.7 853.2 335.7C817.7 326.7 782.3 303.3 746.8 290.7C711.3 278 675.7 276 640 270.5C604.3 265 568.7 256 533.2 247C497.7 238 462.3 229 426.8 221.8C391.3 214.7 355.7 209.3 320 230.2C284.3 251 248.7 298 213.2 314.2C177.7 330.3 142.3 315.7 106.8 290.3C71.3 265 35.7 229 17.8 211L0 193Z" fill="#151a32"></path><path d="M0 384L17.8 390.3C35.7 396.7 71.3 409.3 106.8 420.2C142.3 431 177.7 440 213.2 435.5C248.7 431 284.3 413 320 413C355.7 413 391.3 431 426.8 431C462.3 431 497.7 413 533.2 407.7C568.7 402.3 604.3 409.7 640 418.7C675.7 427.7 711.3 438.3 746.8 441.8C782.3 445.3 817.7 441.7 853.2 439C888.7 436.3 924.3 434.7 942.2 433.8L960 433L960 355L942.2 357.8C924.3 360.7 888.7 366.3 853.2 359.2C817.7 352 782.3 332 746.8 318.5C711.3 305 675.7 298 640 295.3C604.3 292.7 568.7 294.3 533.2 288C497.7 281.7 462.3 267.3 426.8 257.5C391.3 247.7 355.7 242.3 320 262.2C284.3 282 248.7 327 213.2 345C177.7 363 142.3 354 106.8 327.8C71.3 301.7 35.7 258.3 17.8 236.7L0 215Z" fill="#462251"></path><path d="M0 498L17.8 501.5C35.7 505 71.3 512 106.8 510.2C142.3 508.3 177.7 497.7 213.2 493.2C248.7 488.7 284.3 490.3 320 489.5C355.7 488.7 391.3 485.3 426.8 489.8C462.3 494.3 497.7 506.7 533.2 511.2C568.7 515.7 604.3 512.3 640 509.7C675.7 507 711.3 505 746.8 505.8C782.3 506.7 817.7 510.3 853.2 511.3C888.7 512.3 924.3 510.7 942.2 509.8L960 509L960 431L942.2 431.8C924.3 432.7 888.7 434.3 853.2 437C817.7 439.7 782.3 443.3 746.8 439.8C711.3 436.3 675.7 425.7 640 416.7C604.3 407.7 568.7 400.3 533.2 405.7C497.7 411 462.3 429 426.8 429C391.3 429 355.7 411 320 411C284.3 411 248.7 429 213.2 433.5C177.7 438 142.3 429 106.8 418.2C71.3 407.3 35.7 394.7 17.8 388.3L0 382Z" fill="#871756"></path><path d="M0 541L17.8 541C35.7 541 71.3 541 106.8 541C142.3 541 177.7 541 213.2 541C248.7 541 284.3 541 320 541C355.7 541 391.3 541 426.8 541C462.3 541 497.7 541 533.2 541C568.7 541 604.3 541 640 541C675.7 541 711.3 541 746.8 541C782.3 541 817.7 541 853.2 541C888.7 541 924.3 541 942.2 541L960 541L960 507L942.2 507.8C924.3 508.7 888.7 510.3 853.2 509.3C817.7 508.3 782.3 504.7 746.8 503.8C711.3 503 675.7 505 640 507.7C604.3 510.3 568.7 513.7 533.2 509.2C497.7 504.7 462.3 492.3 426.8 487.8C391.3 483.3 355.7 486.7 320 487.5C284.3 488.3 248.7 486.7 213.2 491.2C177.7 495.7 142.3 506.3 106.8 508.2C71.3 510 35.7 503 17.8 499.5L0 496Z" fill="#be123c"></path></svg>
